<svg width="204" height="136" viewBox="0 0 204 136" fill="none" xmlns="http://www.w3.org/2000/svg">
<path d="M120 33L120 50C120 56 117 60 110 60L94 60C87 60 84 56 84 50L84 33C84 27 87 23 94 23L110 23C117 23 120 27 120 33Z" stroke="white" stroke-width="2" stroke-miterlimit="10" stroke-linecap="round" stroke-linejoin="round"/>
<path d="M94 20L94 26" stroke="white" stroke-width="2" stroke-miterlimit="10" stroke-linecap="round" stroke-linejoin="round"/>
<path d="M110 20L110 26" stroke="white" stroke-width="2" stroke-miterlimit="10" stroke-linecap="round" stroke-linejoin="round"/>
<path d="M85 34.1802L119 34.1802" stroke="white" stroke-width="2" stroke-miterlimit="10" stroke-linecap="round" stroke-linejoin="round"/>
<path d="M101.989 43.3999L102.007 43.3999" stroke="white" stroke-width="2" stroke-linecap="round" stroke-linejoin="round"/>
<path d="M94.5867 43.3999L94.6046 43.3999" stroke="white" stroke-width="2" stroke-linecap="round" stroke-linejoin="round"/>
<path d="M94.5867 49.3999L94.6046 49.3999" stroke="white" stroke-width="2" stroke-linecap="round" stroke-linejoin="round"/>
</svg>
